<svg xmlns="http://www.w3.org/2000/svg" width="720" height="460">
<rect width="100%" height="100%" fill="white"/>
<text x="360.0" y="28" text-anchor="middle" font-family="Helvetica" font-size="15" font-weight="bold">Retrieval metrics vs corpus scale</text>
<text x="360.0" y="446" text-anchor="middle" font-family="Helvetica" font-size="12">log N</text>
<text x="18" y="230.0" text-anchor="middle" font-family="Helvetica" font-size="12" transform="rotate(-90 18 230.0)">Metric</text>
<line x1="60" y1="400" x2="660" y2="400" stroke="#333" stroke-width="1.2"/>
<line x1="60" y1="60" x2="60" y2="400" stroke="#333" stroke-width="1.2"/>
<line x1="60" y1="400.0" x2="660" y2="400.0" stroke="#eee"/>
<text x="52" y="404.0" text-anchor="end" font-size="10" font-family="Helvetica">0.28</text>
<line x1="60" y1="315.0" x2="660" y2="315.0" stroke="#eee"/>
<text x="52" y="319.0" text-anchor="end" font-size="10" font-family="Helvetica">0.43</text>
<line x1="60" y1="229.99999999999997" x2="660" y2="229.99999999999997" stroke="#eee"/>
<text x="52" y="233.99999999999997" text-anchor="end" font-size="10" font-family="Helvetica">0.59</text>
<line x1="60" y1="145.0" x2="660" y2="145.0" stroke="#eee"/>
<text x="52" y="149.0" text-anchor="end" font-size="10" font-family="Helvetica">0.75</text>
<line x1="60" y1="60.0" x2="660" y2="60.0" stroke="#eee"/>
<text x="52" y="64.0" text-anchor="end" font-size="10" font-family="Helvetica">0.91</text>
<polyline fill="none" stroke="#1f77b4" stroke-width="1.5" stroke-dasharray="5,3" points="60.0,147.2 72.0,150.0 84.0,152.7 96.0,155.5 108.0,158.3 120.0,161.1 132.0,163.8 144.0,166.6 156.0,169.4 168.0,172.2 180.0,174.9 192.0,177.7 204.0,180.5 216.0,183.3 228.0,186.0 240.0,188.8 252.0,191.6 264.0,194.3 276.0,197.1 288.0,199.9 300.0,202.7 312.0,205.4 324.0,208.2 336.0,211.0 348.0,213.8 360.0,216.5 372.0,219.3 384.0,222.1 396.0,224.9 408.0,227.6 420.0,230.4 432.0,233.2 444.0,236.0 456.0,238.7 468.0,241.5 480.0,244.3 492.0,247.1 504.0,249.8 516.0,252.6 528.0,255.4 540.0,258.1 552.0,260.9 564.0,263.7 576.0,266.5 588.0,269.2 600.0,272.0 612.0,274.8 624.0,277.6 636.0,280.3 648.0,283.1 660.0,285.9"/>
<polyline fill="none" stroke="#1f77b4" stroke-width="2.2" points="60.0,119.4 198.8,192.2 280.0,211.1 337.7,224.6 382.3,230.0 476.5,243.5 521.2,248.9 602.4,270.5 660.0,273.2"/>
<circle cx="60.0" cy="119.4" r="3.8" fill="#1f77b4"/>
<circle cx="198.8" cy="192.2" r="3.8" fill="#1f77b4"/>
<circle cx="280.0" cy="211.1" r="3.8" fill="#1f77b4"/>
<circle cx="337.7" cy="224.6" r="3.8" fill="#1f77b4"/>
<circle cx="382.3" cy="230.0" r="3.8" fill="#1f77b4"/>
<circle cx="476.5" cy="243.5" r="3.8" fill="#1f77b4"/>
<circle cx="521.2" cy="248.9" r="3.8" fill="#1f77b4"/>
<circle cx="602.4" cy="270.5" r="3.8" fill="#1f77b4"/>
<circle cx="660.0" cy="273.2" r="3.8" fill="#1f77b4"/>
<text x="658" y="80" text-anchor="end" font-size="12" fill="#1f77b4" font-family="Helvetica">raw Hit@10</text>
<polyline fill="none" stroke="#ff7f0e" stroke-width="2.2" points="60.0,76.2 198.8,97.8 280.0,114.0 337.7,130.2 382.3,135.6 476.5,170.6 521.2,176.0 602.4,197.6 660.0,203.0"/>
<circle cx="60.0" cy="76.2" r="3.8" fill="#ff7f0e"/>
<circle cx="198.8" cy="97.8" r="3.8" fill="#ff7f0e"/>
<circle cx="280.0" cy="114.0" r="3.8" fill="#ff7f0e"/>
<circle cx="337.7" cy="130.2" r="3.8" fill="#ff7f0e"/>
<circle cx="382.3" cy="135.6" r="3.8" fill="#ff7f0e"/>
<circle cx="476.5" cy="170.6" r="3.8" fill="#ff7f0e"/>
<circle cx="521.2" cy="176.0" r="3.8" fill="#ff7f0e"/>
<circle cx="602.4" cy="197.6" r="3.8" fill="#ff7f0e"/>
<circle cx="660.0" cy="203.0" r="3.8" fill="#ff7f0e"/>
<text x="658" y="96" text-anchor="end" font-size="12" fill="#ff7f0e" font-family="Helvetica">meta Hit@10</text>
<polyline fill="none" stroke="#2ca02c" stroke-width="2.2" points="60.0,224.6 198.8,319.0 280.0,324.4 337.7,327.1 382.3,335.2 476.5,359.5 521.2,373.0 602.4,381.1 660.0,383.8"/>
<circle cx="60.0" cy="224.6" r="3.8" fill="#2ca02c"/>
<circle cx="198.8" cy="319.0" r="3.8" fill="#2ca02c"/>
<circle cx="280.0" cy="324.4" r="3.8" fill="#2ca02c"/>
<circle cx="337.7" cy="327.1" r="3.8" fill="#2ca02c"/>
<circle cx="382.3" cy="335.2" r="3.8" fill="#2ca02c"/>
<circle cx="476.5" cy="359.5" r="3.8" fill="#2ca02c"/>
<circle cx="521.2" cy="373.0" r="3.8" fill="#2ca02c"/>
<circle cx="602.4" cy="381.1" r="3.8" fill="#2ca02c"/>
<circle cx="660.0" cy="383.8" r="3.8" fill="#2ca02c"/>
<text x="658" y="112" text-anchor="end" font-size="12" fill="#2ca02c" font-family="Helvetica">raw Hit@1</text>
</svg>