<svg xmlns="http://www.w3.org/2000/svg" width="720" height="460">
<rect width="100%" height="100%" fill="white"/>
<text x="360.0" y="28" text-anchor="middle" font-family="Helvetica" font-size="15" font-weight="bold">Rank erosion under corpus growth</text>
<text x="360.0" y="446" text-anchor="middle" font-family="Helvetica" font-size="12">log N</text>
<text x="18" y="230.0" text-anchor="middle" font-family="Helvetica" font-size="12" transform="rotate(-90 18 230.0)">Metric</text>
<line x1="60" y1="400" x2="660" y2="400" stroke="#333" stroke-width="1.2"/>
<line x1="60" y1="60" x2="60" y2="400" stroke="#333" stroke-width="1.2"/>
<line x1="60" y1="400.0" x2="660" y2="400.0" stroke="#eee"/>
<text x="52" y="404.0" text-anchor="end" font-size="10" font-family="Helvetica">0.25</text>
<line x1="60" y1="315.0" x2="660" y2="315.0" stroke="#eee"/>
<text x="52" y="319.0" text-anchor="end" font-size="10" font-family="Helvetica">0.36</text>
<line x1="60" y1="229.99999999999997" x2="660" y2="229.99999999999997" stroke="#eee"/>
<text x="52" y="233.99999999999997" text-anchor="end" font-size="10" font-family="Helvetica">0.47</text>
<line x1="60" y1="145.00000000000003" x2="660" y2="145.00000000000003" stroke="#eee"/>
<text x="52" y="149.00000000000003" text-anchor="end" font-size="10" font-family="Helvetica">0.58</text>
<line x1="60" y1="60.0" x2="660" y2="60.0" stroke="#eee"/>
<text x="52" y="64.0" text-anchor="end" font-size="10" font-family="Helvetica">0.69</text>
<polyline fill="none" stroke="#1f77b4" stroke-width="1.5" stroke-dasharray="5,3" points="60.0,176.1 72.0,180.1 84.0,184.2 96.0,188.2 108.0,192.2 120.0,196.2 132.0,200.2 144.0,204.2 156.0,208.3 168.0,212.3 180.0,216.3 192.0,220.3 204.0,224.3 216.0,228.3 228.0,232.4 240.0,236.4 252.0,240.4 264.0,244.4 276.0,248.4 288.0,252.4 300.0,256.4 312.0,260.5 324.0,264.5 336.0,268.5 348.0,272.5 360.0,276.5 372.0,280.5 384.0,284.6 396.0,288.6 408.0,292.6 420.0,296.6 432.0,300.6 444.0,304.6 456.0,308.6 468.0,312.7 480.0,316.7 492.0,320.7 504.0,324.7 516.0,328.7 528.0,332.7 540.0,336.8 552.0,340.8 564.0,344.8 576.0,348.8 588.0,352.8 600.0,356.8 612.0,360.9 624.0,364.9 636.0,368.9 648.0,372.9 660.0,376.9"/>
<polyline fill="none" stroke="#1f77b4" stroke-width="2.2" points="60.0,127.4 198.8,262.1 280.0,269.8 337.7,273.6 382.3,285.2 476.5,319.8 521.2,339.0 602.4,350.6 660.0,354.4"/>
<circle cx="60.0" cy="127.4" r="3.8" fill="#1f77b4"/>
<circle cx="198.8" cy="262.1" r="3.8" fill="#1f77b4"/>
<circle cx="280.0" cy="269.8" r="3.8" fill="#1f77b4"/>
<circle cx="337.7" cy="273.6" r="3.8" fill="#1f77b4"/>
<circle cx="382.3" cy="285.2" r="3.8" fill="#1f77b4"/>
<circle cx="476.5" cy="319.8" r="3.8" fill="#1f77b4"/>
<circle cx="521.2" cy="339.0" r="3.8" fill="#1f77b4"/>
<circle cx="602.4" cy="350.6" r="3.8" fill="#1f77b4"/>
<circle cx="660.0" cy="354.4" r="3.8" fill="#1f77b4"/>
<text x="658" y="80" text-anchor="end" font-size="12" fill="#1f77b4" font-family="Helvetica">raw Hit@1</text>
<polyline fill="none" stroke="#ff7f0e" stroke-width="2.2" points="60.0,83.1 198.8,199.6 280.0,214.4 337.7,225.0 382.3,236.4 476.5,269.0 521.2,284.5 602.4,301.1 660.0,308.5"/>
<circle cx="60.0" cy="83.1" r="3.8" fill="#ff7f0e"/>
<circle cx="198.8" cy="199.6" r="3.8" fill="#ff7f0e"/>
<circle cx="280.0" cy="214.4" r="3.8" fill="#ff7f0e"/>
<circle cx="337.7" cy="225.0" r="3.8" fill="#ff7f0e"/>
<circle cx="382.3" cy="236.4" r="3.8" fill="#ff7f0e"/>
<circle cx="476.5" cy="269.0" r="3.8" fill="#ff7f0e"/>
<circle cx="521.2" cy="284.5" r="3.8" fill="#ff7f0e"/>
<circle cx="602.4" cy="301.1" r="3.8" fill="#ff7f0e"/>
<circle cx="660.0" cy="308.5" r="3.8" fill="#ff7f0e"/>
<text x="658" y="96" text-anchor="end" font-size="12" fill="#ff7f0e" font-family="Helvetica">raw MRR</text>
</svg>